<?xml version="1.0" encoding="iso-8859-1"?>
<!-- Generator: Adobe Illustrator 19.0.0, SVG Export Plug-In . SVG Version: 6.00 Build 0)  -->
<svg version="1.1" id="Capa_1" xmlns="http://www.w3.org/2000/svg" xmlns:xlink="http://www.w3.org/1999/xlink" x="0px" y="0px"
	 viewBox="0 0 512 512" style="enable-background:new 0 0 512 512;" xml:space="preserve">
<path style="fill:#0081C6;" d="M430.846,209.145c61.223,35.346,82.201,113.629,46.855,174.852l0.034,0.023
	c-44.242,76.47-126.927,127.93-221.628,127.975c162.195-58.047,173.444-247.436,132.625-318.152
	C403.168,196.342,417.424,201.387,430.846,209.145z"/>
<path style="fill:#EDECEC;" d="M477.701,383.997c35.346-61.223,14.368-139.505-46.855-174.852
	c-13.422-7.758-27.678-12.803-42.114-15.303C337.351,184.936,283.594,208.2,255.994,256c-55.176,0-102.211-34.93-120.182-83.879
	c40.83-70.727,210.525-155.687,341.911-44.152h0.011C499.523,165.635,512,209.359,512,256c0,46.629-12.477,90.354-34.265,128.02
	L477.701,383.997z"/>
<path style="fill:#F3C74F;" d="M388.732,193.842c40.819,70.715,29.57,260.104-132.625,318.152c-0.034,0-0.079,0-0.113,0
	c-94.745,0-177.475-51.471-221.729-127.975l0.034-0.023c35.346,61.223,113.629,82.19,174.852,46.843
	c13.422-7.747,24.919-17.566,34.299-28.815c33.41-40.042,40.143-98.236,12.544-146.025
	C283.594,208.2,337.351,184.936,388.732,193.842z"/>
<path style="fill:#EDECEC;" d="M34.254,128.003C3.356,297.551,161.79,402.025,243.45,402.025
	c-9.38,11.249-20.877,21.068-34.299,28.815c-61.223,35.346-139.505,14.38-174.852-46.843l-0.034,0.023
	C12.477,346.354,0,302.629,0,256S12.465,165.658,34.254,128.003z"/>
<path style="fill:#0081C6;" d="M255.994,256c27.599,47.789,20.866,105.983-12.544,146.025
	c-81.661,0-240.095-104.474-209.196-274.022C78.249,51.927,160.281,0.602,254.35,0.017
	c-69.927,0.867-126.353,57.845-126.353,127.986c0,15.506,2.759,30.369,7.815,44.118C153.784,221.07,200.818,256,255.994,256z"/>
<path style="fill:#F3C74F;" d="M477.735,127.969h-0.011c-131.387-111.534-301.081-26.575-341.911,44.152
	c-5.056-13.749-7.815-28.613-7.815-44.118c0-70.141,56.426-127.119,126.353-127.986c0.552-0.011,1.092-0.011,1.644-0.011
	C350.74,0.006,433.47,51.477,477.735,127.969z"/>
<g>
	<path style="fill:#394049;" d="M94.136,207.218c-2.144,0-4.288-0.811-5.934-2.437c-3.318-3.278-3.351-8.624-0.073-11.944
		l2.735-2.769c3.277-3.317,8.624-3.352,11.944-0.073c3.318,3.278,3.351,8.624,0.073,11.943l-2.735,2.769
		C98.494,206.38,96.315,207.218,94.136,207.218z"/>
	<path style="fill:#394049;" d="M212.149,323.772c-2.144,0-4.288-0.811-5.934-2.437c-3.318-3.278-3.351-8.624-0.073-11.943
		l2.735-2.769c3.277-3.318,8.624-3.352,11.943-0.073c3.318,3.278,3.351,8.624,0.073,11.943l-2.735,2.769
		C216.506,322.934,214.329,323.772,212.149,323.772z"/>
	<path style="fill:#394049;" d="M158.783,293.525c-5.923,0-11.498-2.289-15.716-6.454c-3.645-3.599-5.9-8.231-6.494-13.243
		c-5.021-0.531-9.679-2.73-13.323-6.329c-8.777-8.668-8.865-22.861-0.196-31.637c3.277-3.318,8.624-3.352,11.943-0.074
		c3.318,3.278,3.352,8.624,0.074,11.943c-1.029,1.042-1.59,2.422-1.581,3.886c0.009,1.464,0.588,2.837,1.629,3.866
		c2.151,2.123,5.627,2.101,7.752-0.048c3.277-3.32,8.624-3.352,11.943-0.074c1.672,1.651,2.511,3.829,2.511,6.006
		c0.001,2.144-0.811,4.29-2.437,5.935c-2.124,2.151-2.102,5.628,0.048,7.753c1.042,1.028,2.41,1.632,3.886,1.581
		c1.464-0.009,2.838-0.588,3.867-1.629c3.277-3.32,8.624-3.352,11.943-0.074c3.318,3.278,3.352,8.624,0.074,11.943
		c-4.199,4.252-9.802,6.614-15.778,6.652C158.88,293.525,158.83,293.525,158.783,293.525z"/>
</g>
<g>
	<path style="fill:#F0B0B7;" d="M82.944,235.437c-2.144,0-4.288-0.811-5.934-2.437l-16.887-16.679
		c-3.318-3.278-3.351-8.624-0.073-11.944c3.277-3.318,8.624-3.351,11.943-0.073l16.887,16.679c3.318,3.278,3.351,8.624,0.073,11.943
		C87.302,234.6,85.123,235.437,82.944,235.437z"/>
	<path style="fill:#F0B0B7;" d="M200.958,351.993c-2.144,0-4.288-0.811-5.934-2.437l-16.887-16.679
		c-3.318-3.278-3.351-8.624-0.073-11.944c3.277-3.318,8.624-3.352,11.943-0.073l16.887,16.679c3.318,3.278,3.351,8.624,0.074,11.943
		C205.315,351.155,203.137,351.993,200.958,351.993z"/>
</g>
<g>
</g>
<g>
</g>
<g>
</g>
<g>
</g>
<g>
</g>
<g>
</g>
<g>
</g>
<g>
</g>
<g>
</g>
<g>
</g>
<g>
</g>
<g>
</g>
<g>
</g>
<g>
</g>
<g>
</g>
</svg>
